<?xml version="1.0" standalone="no"?>
<!DOCTYPE svg PUBLIC "-//W3C//DTD SVG 20010904//EN"
 "http://www.w3.org/TR/2001/REC-SVG-20010904/DTD/svg10.dtd">
<svg version="1.0" xmlns="http://www.w3.org/2000/svg"
 width="260.000000pt" height="260.000000pt" viewBox="0 0 260.000000 260.000000"
 preserveAspectRatio="xMidYMid meet">
<metadata>
Created by potrace 1.11, written by Peter Selinger 2001-2013
</metadata>
<g transform="translate(0.000000,260.000000) scale(0.100000,-0.100000)"
fill="#000000" stroke="none">
<path d="M1158 2595 c-1 -1 -21 -6 -43 -9 -22 -4 -53 -9 -70 -12 -16 -3 -39
-7 -50 -9 -11 -1 -28 -5 -37 -9 -23 -8 -41 -13 -51 -15 -4 0 -21 -8 -37 -16
-16 -8 -32 -15 -35 -15 -3 0 -7 -1 -10 -1 -3 -1 -8 -2 -12 -3 -27 -7 -156 -75
-215 -114 -39 -26 -78 -51 -87 -57 -17 -11 -34 -27 -112 -101 -93 -89 -164
-178 -215 -271 -15 -26 -31 -51 -36 -54 -6 -3 -9 -8 -8 -10 1 -2 -6 -22 -15
-44 -10 -22 -17 -43 -17 -47 1 -5 -2 -8 -6 -8 -5 0 -9 -6 -9 -12 -1 -7 -11
-39 -22 -70 -12 -32 -23 -66 -25 -75 -1 -10 -6 -25 -9 -33 -6 -17 -15 -63 -25
-130 -8 -55 -8 -324 0 -365 3 -16 9 -48 13 -70 3 -22 11 -51 16 -65 5 -14 10
-34 12 -45 5 -24 15 -54 28 -77 5 -10 9 -22 9 -27 0 -5 9 -30 20 -55 11 -26
19 -49 19 -53 0 -3 3 -9 8 -12 5 -3 24 -33 42 -66 76 -138 190 -266 339 -383
23 -19 42 -31 42 -28 0 3 12 -6 26 -19 15 -14 33 -25 40 -25 7 0 14 -3 16 -8
8 -19 213 -108 308 -133 64 -18 72 -19 105 -24 17 -3 50 -9 74 -14 47 -9 316
-7 366 3 33 7 177 39 185 41 7 2 32 12 105 42 33 14 66 25 73 25 6 1 12 5 12
10 0 4 5 8 11 8 6 0 25 10 42 22 18 13 34 22 37 22 3 -1 23 10 45 24 110 69
239 188 322 297 21 28 41 52 46 53 4 2 7 8 7 13 0 5 15 32 33 61 29 46 86 159
87 173 0 3 10 26 21 51 23 55 47 143 53 200 1 11 5 24 7 30 10 18 14 81 13
219 0 136 -5 187 -25 270 -5 22 -11 49 -13 60 -2 11 -9 32 -15 48 -6 15 -8 27
-5 27 4 0 0 10 -8 23 -8 12 -20 41 -28 65 -7 23 -16 42 -19 42 -4 0 -7 10 -8
22 -1 11 -6 24 -11 27 -5 3 -19 25 -31 49 -41 81 -124 191 -205 275 -55 55
-192 167 -206 167 -5 0 -15 6 -22 13 -51 51 -390 190 -418 172 -6 -4 -10 -1
-10 5 0 7 -6 10 -14 7 -8 -3 -17 -3 -20 0 -3 4 -18 8 -34 10 -40 5 -340 12
-344 8z"/>
</g>
</svg>
