<?xml version="1.0" standalone="no"?>
<!DOCTYPE svg PUBLIC "-//W3C//DTD SVG 20010904//EN"
 "http://www.w3.org/TR/2001/REC-SVG-20010904/DTD/svg10.dtd">
<svg version="1.0" xmlns="http://www.w3.org/2000/svg"
 width="260.000000pt" height="260.000000pt" viewBox="0 0 260.000000 260.000000"
 preserveAspectRatio="xMidYMid meet">
<metadata>
Created by potrace 1.11, written by Peter Selinger 2001-2013
</metadata>
<g transform="translate(0.000000,260.000000) scale(0.100000,-0.100000)"
fill="#000000" stroke="none">
<path d="M1155 2563 c-129 -26 -305 -69 -365 -89 -65 -22 -164 -71 -195 -96
-5 -5 -39 -30 -75 -56 -97 -70 -157 -128 -221 -217 -32 -44 -62 -84 -67 -90
-62 -77 -123 -235 -157 -405 -2 -8 -8 -33 -13 -55 -37 -141 -40 -340 -8 -480
79 -345 85 -362 210 -539 85 -120 147 -184 262 -266 164 -117 216 -139 459
-197 129 -31 170 -36 295 -39 80 -2 163 1 185 6 22 5 51 11 65 14 14 3 54 13
90 22 36 9 74 17 85 19 43 6 156 45 212 73 77 40 246 163 305 223 61 63 177
227 218 308 28 57 93 286 117 412 4 24 8 114 7 199 0 151 -2 160 -47 340 -25
101 -60 212 -76 245 -26 52 -143 227 -176 261 -5 6 -25 27 -42 47 -18 20 -59
55 -90 79 -32 24 -64 48 -71 55 -30 29 -163 104 -222 126 -55 21 -173 51 -372
96 -37 9 -276 12 -313 4z"/>
</g>
</svg>
